inDegrees=yes
name=IK-live
DataType=double
version=3
OpenSimVersion=4.1
endheader
time	pelvis_tilt	pelvis_list	pelvis_rotation	pelvis_tx	pelvis_ty	pelvis_tz	hip_flexion_r	hip_adduction_r	hip_rotation_r	knee_angle_r	ankle_angle_r	subtalar_angle_r	mtp_angle_r	hip_flexion_l	hip_adduction_l	hip_rotation_l	knee_angle_l	ankle_angle_l	subtalar_angle_l	mtp_angle_l	lumbar_extension	lumbar_bending	lumbar_rotation	neck_flex	neck_latbend	neck_rot	arm_flex_r	arm_add_r	arm_rot_r	elbow_flex_r	pro_sup_r	wrist_flex_r	wrist_dev_r	arm_flex_l	arm_add_l	arm_rot_l	elbow_flex_l	pro_sup_l	wrist_flex_l	wrist_dev_l
18.0325245	-17.21382144144745	43.16463594854667	-216.2778824229261	0.2341366603171506	0.04326292228651554	-1.326684523481465	-22.57117169827992	-1.591976316804377	-3.241458145969817	5.899560354604904	2.451982624139334	1.987972377786656	0	-24.74788768789517	-3.395140484746916	-11.58000132048591	9.793848132074926	-0.4439473045988533	4.250290820099795	0	-21.37711699760957	1.659277491615732	3.206407148933037	0	0	0	14.4328444418003	-15.12453193093112	20.73380814966529	44.37137604252335	40.06150623094558	0	4.621608023771437	18.52136309156901	-13.75107940454063	26.78154569329162	44.32588938957314	42.08350658445973	0	4.621608023771437
18.199382	-12.85151533621937	47.29580187446552	-217.5893417070755	0.2341366603171506	0.04326292228651554	-1.326684523481465	-22.57117169827992	-1.591976316804377	-3.241458145969817	5.899560354604904	2.451982624139334	1.987972377786656	0	-24.74788768789517	-3.395140484746916	-11.58000132048591	9.793848132074926	-0.4439473045988533	4.250290820099795	0	-21.37711699760957	1.659277491615732	3.206407148933037	0	0	0	14.52816944728793	-15.12420955791832	20.66499189089608	44.50902479742319	40.10269056397308	0	4.626814870367577	18.61039929465126	-13.75431267349538	26.6912133318737	44.46377151487096	42.10777468899456	0	4.626814870367577
18.3652648	-11.39492904134609	49.49012714835941	-219.9938227988183	0.2341366603171506	0.04326292228651554	-1.326684523481465	-22.57117169827992	-1.591976316804377	-3.241458145969817	5.899560354604904	2.451982624139334	1.987972377786656	0	-24.74788768789517	-3.395140484746916	-11.58000132048591	9.793848132074926	-0.4439473045988533	4.250290820099795	0	-21.37711699760957	1.659277491615732	3.206407148933037	0	0	0	14.62334524301447	-15.12388801942635	20.59641489969958	44.64596819832536	40.14352913088066	0	4.631950063767066	18.69930099079129	-13.75753757087128	26.60121022283308	44.60094666560232	42.13184038601761	0	4.631950063767066
18.5301816	-6.95707729009429	42.12960401086519	-215.5516456071778	0.2341366603171506	0.04326292228651554	-1.326684523481465	-22.57117169827992	-1.591976316804377	-3.241458145969817	5.899560354604904	2.451982624139334	1.987972377786656	0	-24.74788768789517	-3.395140484746916	-11.58000132048591	9.793848132074926	-0.4439473045988533	4.250290820099795	0	-21.37711699760957	1.659277491615732	3.206407148933037	0	0	0	14.71837218946316	-15.12356731329489	20.52807623298142	44.78221113058066	40.184024892167	0	4.637014590202682	18.78806848369274	-13.76075411835276	26.51153490520516	44.73741974467716	42.1557053754293	0	4.637014590202682
18.6820779	-8.54939540407012	38.59942459754435	-216.7658760008813	0.2341366603171506	0.04326292228651554	-1.326684523481465	-22.57117169827992	-1.591976316804377	-3.241458145969817	5.899560354604904	2.451982624139334	1.987972377786656	0	-24.74788768789517	-3.395140484746916	-11.58000132048591	9.793848132074926	-0.4439473045988533	4.250290820099795	0	-21.37711699760957	1.659277491615732	3.206407148933037	0	0	0	14.81325064567219	-15.12324743736922	20.45997495250813	44.91775842678987	40.22418078154674	0	4.642009422325054	18.87670207593355	-13.763962337568	26.42218592730271	44.87319560197449	42.17937134256279	0	4.642009422325054
18.8489808	-8.900485983522222	37.61394379823848	-217.489187988279	0.2341366603171506	0.04326292228651554	-1.326684523481465	-22.57117169827992	-1.591976316804377	-3.241458145969817	5.899560354604904	2.451982624139334	1.987972377786656	0	-24.74788768789517	-3.395140484746916	-11.58000132048591	9.793848132074926	-0.4439473045988533	4.250290820099795	0	-21.37711699760957	1.659277491615732	3.206407148933037	0	0	0	14.90798096924311	-15.12292838950018	20.39211012487073	45.05261486764508	40.26399970622823	0	4.646935519389998	18.965202068972	-13.76716225008913	26.33316184662824	45.00827903518951	42.20283995831607	0	4.646935519389998
19.0159306	-10.48208189505953	33.30579156443307	-218.5282511194716	0.2341366603171506	0.04326292228651554	-1.326684523481465	-22.57117169827992	-1.591976316804377	-3.241458145969817	5.899560354604904	2.451982624139334	1.987972377786656	0	-24.74788768789517	-3.395140484746916	-11.58000132048591	9.793848132074926	-0.4439473045988533	4.250290820099795	0	-21.37711699760957	1.659277491615732	3.206407148933037	0	0	0	15.00256351634917	-15.1226101675442	20.32448082144872	45.1867851827534	40.30348454718779	0	4.651793827443293	19.05356876315282	-13.77035387743228	26.24446122978753	45.14267479066307	42.22611287928258	0	4.651793827443293
19.1797583	-11.28973358045398	26.0511223151314	-220.244590162575	0.2341366603171506	0.04326292228651554	-1.326684523481465	-22.57117169827992	-1.591976316804377	-3.241458145969817	5.899560354604904	2.451982624139334	1.987972377786656	0	-24.74788768789517	-3.395140484746916	-11.58000132048591	9.793848132074926	-0.4439473045988533	4.250290820099795	0	-21.37711699760957	1.659277491615732	3.206407148933037	0	0	0	15.09699864174362	-15.12229276936324	20.25708611837434	45.32027405144373	40.34263815944004	0	4.656585279502906	19.14180245771318	-13.77353724105783	26.15608265240419	45.27638756419394	42.24919174788051	0	4.656585279502906
19.331682	-18.80311209909052	12.61964908114512	-225.813655753671	0.2341366603171506	0.04326292228651554	-1.326684523481465	-22.57117169827992	-1.591976316804377	-3.241458145969817	5.899560354604904	2.451982624139334	1.987972377786656	0	-24.74788768789517	-3.395140484746916	-11.58000132048591	9.793848132074926	-0.4439473045988533	4.250290820099795	0	-21.37711699760957	1.659277491615732	3.206407148933037	0	0	0	15.19128669876794	-15.12197619282481	20.18992509649739	45.45308610355688	40.38146337230478	0	4.661310795738629	19.22990345078863	-13.77671236237049	26.06802469903528	45.40942200183444	42.27207819248075	0	4.661310795738629
19.4986027	-27.49551309989542	-3.728440641688995	-229.1180631227717	0.2341366603171506	0.04326292228651554	-1.326684523481465	-22.57117169827992	-1.591976316804377	-3.241458145969817	5.899560354604904	2.451982624139334	1.987972377786656	0	-24.74788768789517	-3.395140484746916	-11.58000132048591	9.793848132074926	-0.4439473045988533	4.250290820099795	0	-21.37711699760957	1.659277491615732	3.206407148933037	0	0	0	15.28542803935993	-15.12166043580193	20.12299684135018	45.58522592021942	40.41996298967037	0	4.665971283649309	19.31787203941905	-13.77987926271946	25.9802859630881	45.54178270066959	42.29477382753355	0	4.665971283649309
19.6654412	-32.58545633970921	-4.077441808676292	-241.6889937623579	0.2341366603171506	0.04326292228651554	-1.326684523481465	-22.57117169827992	-1.591976316804377	-3.241458145969817	5.899560354604904	2.451982624139334	1.987972377786656	0	-24.74788768789517	-3.395140484746916	-11.58000132048591	9.793848132074926	-0.4439473045988533	4.250290820099795	0	-21.37711699760957	1.659277491615732	3.206407148933037	0	0	0	15.37942301406194	-15.12134549617311	20.05630044311303	45.7166980346019	40.4581397902535	0	4.670567638237562	19.40570851955449	-13.78303796339858	25.89286504673788	45.67347420958033	42.31728025369389	0	4.670567638237562
19.8323679	-30.47760771166154	4.529794341950263	-245.8121635558763	0.2341366603171506	0.04326292228651554	-1.326684523481465	-22.57117169827992	-1.591976316804377	-3.241458145969817	5.899560354604904	2.451982624139334	1.987972377786656	0	-24.74788768789517	-3.395140484746916	-11.58000132048591	9.793848132074926	-0.4439473045988533	4.250290820099795	0	-21.37711699760957	1.659277491615732	3.206407148933037	0	0	0	15.4732719720288	-15.1210313718224	19.98983499657999	45.84750693266151	40.49599652785577	0	4.675100742182107	19.49341318606106	-13.78618848564648	25.80576056084657	45.80450102999139	42.33959905794548	0	4.675100742182107
19.9992954	-23.50480191503447	20.70429435642063	-248.2198708627002	0.2341366603171506	0.04326292228651554	-1.326684523481465	-22.57117169827992	-1.591976316804377	-3.241458145969817	5.899560354604904	2.451982624139334	1.987972377786656	0	-24.74788768789517	-3.395140484746916	-11.58000132048591	9.793848132074926	-0.4439473045988533	4.250290820099795	0	-21.37711699760957	1.659277491615732	3.206407148933037	0	0	0	15.56697526103586	-15.12071806063927	19.92359960112502	45.97765705386973	40.53353593161664	0	4.679571466007679	19.58098633272671	-13.7893308506467	25.71897112488264	45.9348676166038	42.36173181372362	0	4.679571466007679
20.1621932	-6.746586089201369	40.36697431982655	-246.3794486825753	0.2341366603171506	0.04326292228651554	-1.326684523481465	-22.57117169827992	-1.591976316804377	-3.241458145969817	5.899560354604904	2.451982624139334	1.987972377786656	0	-24.74788768789517	-3.395140484746916	-11.58000132048591	9.793848132074926	-0.4439473045988533	4.250290820099795	0	-21.37711699760957	1.659277491615732	3.206407148933037	0	0	0	15.78161100028502	-15.11992207742848	19.74291498358911	46.37680013779067	40.66912131959054	0	4.699266256495346	19.780475874028	-13.79731453419638	25.47912485685251	46.33476332008387	42.44141954519127	0	4.699266256495346
20.3150994	7.758916893242113	45.05924511028755	-239.4673104059434	0.2341366603171506	0.04326292228651554	-1.326684523481465	-22.57117169827992	-1.591976316804377	-3.241458145969817	5.899560354604904	2.451982624139334	1.987972377786656	0	-24.74788768789517	-3.395140484746916	-11.58000132048591	9.793848132074926	-0.4439473045988533	4.250290820099795	0	-21.37711699760957	1.659277491615732	3.206407148933037	0	0	0	15.94194624315925	-15.11932768140452	19.60819132425408	46.67301001673236	40.76894821364212	0	4.713446986622007	19.92950610499471	-13.80327629884779	25.30038084047665	46.63152739471648	42.50011200581844	0	4.713446986622007
